<?xml version="1.0" standalone="no"?>
<!DOCTYPE svg PUBLIC "-//W3C//DTD SVG 1.1//EN" "http://www.w3.org/Graphics/SVG/1.1/DTD/svg11.dtd" >
<svg xmlns="http://www.w3.org/2000/svg">
<metadata></metadata>
<defs>
<font id="unlokt-v2regular" horiz-adv-x="2048" >
<font-face units-per-em="2048" ascent="1638" descent="-410" />
<missing-glyph horiz-adv-x="500" />
<glyph horiz-adv-x="0" />
<glyph unicode="&#xd;" />
<glyph unicode="a" d="M246 464q0 -52 36 -88t88 -36t88 36l46 46l168 -168q18 -16 42 -16t40 16l238 238q18 18 18 42t-18 40l-168 168l300 300l8 -4q92 -48 198 -48q180 0 307 127t127 307t-128 307t-307 127t-306 -127t-127 -307q0 -106 48 -198l4 -8l-666 -666q-36 -36 -36 -88zM1146 1424 q0 76 54 130t130 54t130 -54t54 -130t-54 -130t-130 -54t-130 54t-54 130z" />
<glyph unicode="b" d="M370 148l256 658l206 -116zM385 1082q-6 21 -6 41q0 39 22 76q33 55 96 71q22 6 43 6q40 0 78 -20l620 -348q56 -32 73 -93q6 -21 6 -42q0 -39 -21 -75q-34 -56 -98 -72q-21 -5 -42 -5q-41 0 -78 21l-620 346q-56 32 -73 94zM726 1284l314 358l332 -186l-164 -442z M983 1802q-4 15 -4 30q0 30 17 58q24 40 72 53q17 5 33 5q30 0 57 -16l414 -232q42 -24 55 -70q4 -15 4 -30q0 -30 -17 -58q-24 -42 -72 -54q-16 -4 -31 -4q-31 0 -59 16l-414 232q-42 24 -55 70z" />
<glyph unicode="c" d="M102 1088q0 284 152 516t400 344q-16 -106 -16 -190q0 -222 72 -423t194 -347t291 -232t354 -86t353 84q-102 -270 -339 -438t-531 -168q-190 0 -362 74t-297 200t-198 300t-73 366z" />
<glyph unicode="d" d="M98 1292q0 -76 31 -161t83 -163t120 -159t143 -152t149 -135t142 -116t120 -90t83 -59t31 -19q20 12 52 33t125 91t178 141t188 173t178 198t126 208t51 210q0 146 -54 273t-166 210t-258 83q-86 0 -161 -30t-120 -73t-78 -85t-47 -72l-14 -30q-4 12 -15 31t-49 69 t-82 88t-118 70t-154 32q-152 0 -265 -84t-166 -211t-53 -271z" />
<glyph unicode="e" d="M188 945q0 57 40 97l832 816l748 -2v-754l-818 -824q-40 -40 -96 -41h-3q-54 0 -93 39l-572 574q-38 38 -38 95zM530 922l48 -48l524 526l-48 46zM674 778l46 -48l524 526l-46 48zM816 634l48 -46l522 524l-46 48zM1334 1520q0 -54 40 -94t94 -40q56 0 96 39t40 95 t-40 96t-96 40q-54 0 -94 -40t-40 -96z" />
<glyph unicode="f" d="M188 894l964 964h438l218 -220v-436l-964 -964zM1286 1488q0 -64 45 -109t109 -45t109 45t45 109t-45 110t-109 46t-109 -46t-45 -110z" />
<glyph unicode="g" d="M190 1048q0 220 108 406t295 295t407 109t406 -109t295 -295t109 -406t-109 -407t-295 -295t-406 -108t-407 108t-295 295t-108 407zM338 1046q0 -178 88 -329t239 -239t327 -88q178 0 329 88t239 239t88 329t-88 328t-239 238t-329 88t-328 -88t-238 -238t-88 -328z M872 946v376q0 26 18 43t44 17t44 -17t18 -43v-314h186q26 0 44 -18t18 -44t-18 -44t-44 -18h-248q-26 0 -44 18t-18 44z" />
<glyph unicode="h" d="M190 1048q0 220 108 406t295 295t407 109t406 -109t295 -295t109 -407t-109 -407t-295 -294t-406 -108t-407 108t-295 295t-108 407zM380 1048q0 -256 182 -439t438 -183q204 0 366 120l-4 4q78 56 136 134l2 -2q120 162 120 366q0 254 -182 437t-438 183 q-204 0 -366 -120l2 -4q-76 -56 -134 -134l-2 4q-120 -162 -120 -366zM902 950v518q0 40 29 69t69 29t68 -29t28 -69v-510l166 -166q30 -26 30 -68t-29 -70t-69 -28q-42 0 -68 30l-194 194q-30 28 -30 100z" />
<glyph unicode="i" d="M186 852v390q0 24 17 40t39 16t39 -16t17 -40v-390q0 -24 -17 -40t-39 -16t-39 16t-17 40zM354 844v402l1230 272v-948l-280 64v-60q0 -46 -33 -79t-79 -33h-502q-48 0 -81 33t-33 79v220zM634 574q0 -24 16 -40t40 -16h502q22 0 39 16t17 40v70l-614 138v-208zM1638 546 v1002q0 36 25 60t59 24t59 -25t25 -59v-1002q0 -34 -25 -59t-59 -25t-59 25t-25 59z" />
<glyph unicode="j" d="M326 1159q0 117 44 219t121 179t179 121t220 44q114 0 217 -44t179 -121t120 -179t44 -220q0 -86 -24 -163t-68 -145l302 -302q16 -18 16 -41t-16 -39l-80 -80q-16 -16 -39 -16t-39 16l-304 302q-68 -44 -145 -68t-163 -24q-118 0 -220 44t-179 120t-121 178t-44 219z M550 1159q0 -71 26 -132t72 -107t108 -72t133 -26t132 26t107 72t72 108q26 60 26 130t-26 132t-72 107t-107 73t-132 28t-133 -27t-108 -73t-72 -107t-26 -132zM674 1158q0 46 18 85t46 67t67 45t85 17q18 0 29 -12t11 -30t-11 -30t-29 -12q-54 0 -92 -38t-38 -92 q0 -18 -12 -29t-30 -11t-31 11t-13 29z" />
<glyph unicode="k" d="M192 238v1620h1620v-1620h-1620zM332 730h1338v986h-1338v-986zM492 870l132 262l120 -120l162 262l160 -164l222 334l232 -574h-1028zM544 1394q0 44 30 75t74 31t75 -31t31 -75t-31 -75t-75 -31t-74 31t-30 75z" />
<glyph unicode="l" d="M192 500v220q0 14 11 25t26 11t26 -10t11 -26v-184h184q14 0 25 -11t11 -26t-11 -26t-25 -11h-222q-14 0 -25 11t-11 27zM192 932v222q0 14 11 25t26 11t26 -11t11 -25v-222q0 -14 -11 -25t-26 -11t-26 11t-11 25zM192 1374v222q0 14 11 25t25 11h222q14 0 25 -11t11 -26 t-11 -26t-25 -11h-184v-184q0 -14 -11 -25t-26 -11t-26 11t-11 25zM368 916h358v88h-358v-88zM634 499q0 15 10 26t26 11h222q14 0 25 -11t11 -26t-11 -26t-25 -11h-222q-16 0 -26 11t-10 26zM634 1595q0 15 10 26t26 11h220q16 0 27 -11t11 -26t-11 -26t-27 -11h-220 q-16 0 -26 11t-10 26zM906 1184q0 -88 38 -130q20 -22 38 -32t50 -10q82 0 120 42q36 42 36 130q0 86 -36 126q-38 42 -106 42q-66 0 -102 -42q-38 -42 -38 -126zM996 644h92l456 722h-88zM1002 1182q0 64 14 86q12 16 30 16t32 -16q12 -22 12 -86t-14 -84q-10 -16 -30 -16 t-30 16q-14 22 -14 84zM1076 499q0 15 10 26t26 11h220q16 0 27 -11t11 -26t-11 -26t-27 -11h-220q-16 0 -26 11t-10 26zM1076 1595q0 15 10 26t26 11h220q16 0 27 -11t11 -26t-11 -26t-27 -11h-220q-16 0 -26 11t-10 26zM1354 824q0 -88 38 -128q38 -42 104 -42t104 42 q38 40 38 127t-38 129q-40 42 -106 42q-64 0 -102 -42t-38 -128zM1450 824q0 64 14 84q10 16 30 16t32 -16q14 -22 14 -84q0 -64 -16 -84q-10 -16 -30 -16t-30 16q-14 20 -14 84zM1518 499q0 15 10 26t26 11h184v184q0 16 11 26t26 10t26 -10t11 -26v-220q0 -16 -11 -27 t-27 -11h-220q-16 0 -26 11t-10 26zM1518 1595q0 15 10 26t26 11h220q16 0 27 -11t11 -25v-222q0 -14 -11 -25t-26 -11t-26 11t-11 25v184h-184q-16 0 -26 11t-10 26zM1738 932v222q0 14 11 25t26 11t26 -11t11 -25v-222q0 -14 -11 -25t-26 -11t-26 11t-11 25z" />
<glyph unicode="m" d="M188 238l64 174l110 -110zM270 468l108 302l342 -344l-300 -106zM406 816l846 848l362 -362l-846 -848zM570 816l40 -38l682 682l-40 40zM650 738l38 -40l682 682l-38 40zM730 658l38 -40l682 682l-40 40zM1292 1700l122 124q34 34 81 34t81 -34l198 -200q34 -32 34 -79 t-34 -81l-124 -124z" />
<glyph unicode="n" d="M192 1238h590l220 620l218 -620h592l-482 -364l170 -636l-498 382l-500 -382l170 636z" />
<glyph unicode="o" d="M370 978q0 146 76 259t212 133v128q0 148 101 254t241 106q144 0 244 -106t100 -254v-128q132 -22 209 -134t77 -258q0 -94 -65 -205t-157 -202t-186 -169t-156 -121t-66 -43q-12 8 -35 23t-89 64t-125 99t-132 122t-126 140t-88 146t-35 146zM772 1368q44 -10 84 -34 t65 -51t44 -53t27 -42l8 -16q4 6 9 17t25 41t44 54t65 49t87 35v130q0 100 -67 170t-163 70q-94 0 -161 -70t-67 -170v-130zM912 600h176l-76 208q32 6 54 30t22 58q0 38 -26 64t-62 26q-34 0 -59 -26t-25 -64q0 -32 19 -56t49 -30z" />
<glyph unicode="p" d="M642 1046l150 170q48 49 77 49q5 0 9 -1q14 -4 20 -17t2 -27l-248 -782q-8 -24 -8 -47q0 -43 27 -81q41 -58 139 -72q132 0 227 72t195 212l2 45t0 53l-150 -172q-49 -49 -80 -49q-5 0 -10 1q-30 10 -22 42l250 784q4 22 4 42q0 52 -30 94q-42 58 -130 66q-94 0 -217 -83 t-207 -205v-94zM1016 1696q0 -72 49 -118t122 -46t123 46t50 118q0 70 -50 116t-123 46t-122 -46t-49 -116z" />
<glyph unicode="q" d="M100 1192l894 -954l906 954h-576v244h-654v-244h-570zM670 1520h654v170h-654v-170zM670 1768h654v90h-654v-90z" />
<glyph unicode="r" d="M192 1054l476 264l426 226q222 118 404 206l114 58q44 24 76 38q27 10 48 10h7q23 -2 41 -24q24 -23 24 -53q0 -21 -12 -45q-30 -52 -94 -188q-44 -92 -94 -194l-112 -212l-116 -218l-112 -210l-258 -474l-106 714zM1044 1122l52 -438l518 964z" />
<glyph unicode="s" d="M526 1382q0 196 139 336t335 140t335 -140t139 -336q0 -10 -2 -34q-2 -22 -28 -116q-26 -92 -70 -210q-46 -118 -144 -328t-230 -456q-134 248 -230 456q-98 208 -144 330q-44 120 -70 208q-24 86 -28 118zM860 1382q0 -58 41 -98t99 -40t99 40t41 98t-41 99t-99 41 t-99 -41t-41 -99z" />
<glyph unicode="t" d="M392 238v912h158v266q0 92 35 172t94 140t139 95t172 35h8h8q92 0 172 -35t140 -95t95 -140t35 -172v-266h160v-912h-1216zM768 1150h458v266q0 46 -17 85t-47 69t-70 48t-86 18h-6h-10q-46 0 -86 -18t-70 -48t-48 -70q-18 -38 -18 -84v-266zM862 404h276l-68 296 q30 18 49 49t19 69q0 58 -40 98t-97 40t-98 -40t-41 -98q0 -38 19 -69t49 -49z" />
<glyph unicode="u" d="M197 567q17 59 104 128t147 90q43 15 78 15q13 0 25 -2q43 -8 77 -44l74 -72q18 -18 47 -18q12 0 26 3q47 11 104 47t119 92q64 58 122 116q62 62 116 124q56 62 93 118t48 104q3 14 3 27q0 29 -18 47l-72 72q-32 36 -43 79q-4 14 -4 31q0 32 15 72q22 60 90 146 q70 86 130 106q29 10 55 10q29 0 55 -12q50 -22 94 -66l82 -86q42 -42 42 -142t-52 -232q-52 -134 -155 -293t-263 -319q-164 -166 -322 -266q-156 -102 -288 -153t-233 -51t-145 46l-82 80q-42 42 -64 93q-12 29 -12 60q0 24 7 50z" />
<glyph unicode="v" d="M188 668q0 182 126 304l284 286q126 126 306 126q158 0 278 -102l-186 -186q-44 28 -92 28q-70 0 -122 -50l-282 -286q-50 -48 -50 -120t49 -121t121 -49q40 0 80 19t52 55h386l-214 -208q-130 -126 -304 -126q-178 0 -305 126t-127 304zM816 812l186 186q42 -28 90 -28 q72 0 122 52l284 284q50 48 50 120t-50 121t-120 49q-42 0 -81 -19t-53 -55h-384l214 208q128 128 304 128q178 0 304 -127t126 -305q0 -182 -126 -304l-284 -286q-126 -126 -306 -126q-156 0 -276 102z" />
<glyph unicode="w" d="M60 422h1880l-548 548l-392 -392l-392 392zM60 578l470 470l-470 470v-940zM60 1674h1880l-940 -940zM1470 1048l470 -470v940z" />
<glyph unicode="x" d="M246 294q0 -28 19 -47t45 -19h1380q26 0 45 19t19 47v852v132v66h-64h-1380h-64v-66v-132v-852zM246 1408v66v132v66q0 26 19 46t45 20h132v64q0 28 19 47t47 19h66q26 0 46 -19t20 -47v-64h720v64q0 28 20 47t46 19h66q28 0 47 -19t19 -47v-64h132q26 0 45 -20t19 -46 v-66v-132v-66h-64h-1380h-64zM376 358v198h198v-198h-198zM376 622v196h198v-196h-198zM376 884v196h198v-196h-198zM640 358v198h196v-198h-196zM640 622v196h196v-196h-196zM640 884v196h196v-196h-196zM902 358v198h196v-198h-196zM902 622v196h196v-196h-196zM902 884 v196h196v-196h-196zM1164 358v198h196v-198h-196zM1164 622v196h196v-196h-196zM1164 884v196h196v-196h-196zM1426 358v198h198v-198h-198zM1426 622v196h198v-196h-198zM1426 884v196h198v-196h-198z" />
<glyph unicode="y" d="M172 680q0 64 46 108l782 782l782 -782q46 -44 46 -108t-45 -109t-109 -45t-110 44l-564 566l-564 -566q-46 -44 -110 -44t-109 45t-45 109z" />
<glyph unicode="z" d="M172 1416q0 -64 46 -108l782 -782l782 782q46 44 46 108t-45 109t-109 45t-110 -44l-564 -566l-564 566q-46 44 -110 44t-109 -45t-45 -109z" />
<glyph unicode="&#x2000;" horiz-adv-x="1024" />
<glyph unicode="&#x2001;" />
<glyph unicode="&#x2002;" horiz-adv-x="1024" />
<glyph unicode="&#x2003;" />
<glyph unicode="&#x2004;" horiz-adv-x="682" />
<glyph unicode="&#x2005;" horiz-adv-x="512" />
<glyph unicode="&#x2006;" horiz-adv-x="341" />
<glyph unicode="&#x2007;" horiz-adv-x="341" />
<glyph unicode="&#x2008;" horiz-adv-x="256" />
<glyph unicode="&#x2009;" horiz-adv-x="409" />
<glyph unicode="&#x200a;" horiz-adv-x="113" />
<glyph unicode="&#x202f;" horiz-adv-x="409" />
<glyph unicode="&#x205f;" horiz-adv-x="512" />
<glyph unicode="&#xe000;" horiz-adv-x="1870" d="M0 0v1870h1870v-1870h-1870z" />
</font>
</defs>
</svg>
